<svg width="100" height="100" viewBox="0 0 100 100" fill="none" xmlns="http://www.w3.org/2000/svg">
<circle cx="50" cy="50" r="50" fill="#E4C466"/>
<rect x="20" width="80" height="80" rx="25" fill="#E4C466"/>
<path d="M44.7284 59.096C44.6004 59.096 44.4084 59.096 44.1524 59.096C43.8964 59.032 43.7684 58.872 43.7684 58.616C43.7684 58.104 44.0564 57.752 44.6324 57.56C45.2724 57.304 45.7524 57.144 46.0724 57.08C51.1924 56.12 56.0564 54.712 60.6644 52.856C65.2724 51 69.7204 48.6 74.0084 45.656C75.2884 44.824 76.6004 43.768 77.9444 42.488C79.2884 41.208 80.4084 39.8 81.3044 38.264C82.2644 36.664 82.7444 35.064 82.7444 33.464C82.7444 30.648 81.8484 28.344 80.0564 26.552C78.3284 24.76 76.1524 23.384 73.5284 22.424C70.9044 21.464 68.1844 20.824 65.3684 20.504C62.6164 20.12 60.1844 19.928 58.0724 19.928C56.0884 19.928 53.6564 20.088 50.7764 20.408C47.8964 20.664 44.9204 21.144 41.8484 21.848C38.8404 22.552 36.0884 23.544 33.5924 24.824C31.1604 26.04 29.3684 27.576 28.2164 29.432C28.1524 29.624 28.0564 29.848 27.9284 30.104C27.7364 30.296 27.4804 30.392 27.1604 30.392C26.9684 30.392 26.8404 30.296 26.7764 30.104C26.6484 29.912 26.5844 29.752 26.5844 29.624C26.5844 29.496 26.6164 29.336 26.6804 29.144C26.7444 28.952 26.8084 28.792 26.8724 28.664C27.9604 26.424 29.7204 24.568 32.1524 23.096C34.6484 21.56 37.4324 20.376 40.5044 19.544C43.6404 18.648 46.7124 18.008 49.7204 17.624C52.7284 17.24 55.3204 17.048 57.4964 17.048C59.4804 17.048 61.7204 17.208 64.2164 17.528C66.7124 17.848 69.2084 18.392 71.7044 19.16C74.2004 19.864 76.5044 20.856 78.6164 22.136C80.7284 23.416 82.4244 25.016 83.7044 26.936C84.9844 28.792 85.6244 31.032 85.6244 33.656C85.6244 36.472 84.6004 39.16 82.5524 41.72C80.5044 44.28 77.8484 46.616 74.5844 48.728C71.3204 50.84 67.8324 52.664 64.1204 54.2C60.4084 55.736 56.8244 56.952 53.3684 57.848C49.9124 58.68 47.0324 59.096 44.7284 59.096ZM45.9764 84.056C43.4164 84.056 41.5284 83.384 40.3124 82.04C39.0964 80.696 38.3284 79.032 38.0084 77.048C37.6884 75 37.5284 72.952 37.5284 70.904C37.5284 63.928 38.7764 57.304 41.2724 51.032C43.8324 44.76 46.7764 38.68 50.1044 32.792C50.2324 32.536 50.2964 32.312 50.2964 32.12C50.2964 31.8 50.2644 31.608 50.2004 31.544C50.2004 31.48 50.1684 31.448 50.1044 31.448C49.5924 31.448 49.4644 31.224 49.7204 30.776C50.0404 30.328 50.5204 29.816 51.1604 29.24C51.8004 28.6 52.4404 28.056 53.0804 27.608C53.7204 27.16 54.1684 26.936 54.4244 26.936C54.9364 26.936 55.4484 27.128 55.9604 27.512C56.4724 27.832 56.7284 28.28 56.7284 28.856C56.7284 29.112 56.1844 30.104 55.0964 31.832C54.0084 33.56 52.6324 35.832 50.9684 38.648C49.3684 41.464 47.7364 44.664 46.0724 48.248C44.4724 51.768 43.1284 55.512 42.0404 59.48C40.9524 63.384 40.4084 67.288 40.4084 71.192C40.4084 72.216 40.5044 73.56 40.6964 75.224C40.9524 76.888 41.4004 78.424 42.0404 79.832C42.6804 81.176 43.6724 81.976 45.0164 82.232C45.3364 82.296 45.8164 82.424 46.4564 82.616C47.0964 82.808 47.4484 83.128 47.5124 83.576C47.3844 83.832 47.1604 83.96 46.8404 83.96C46.5204 84.024 46.2324 84.056 45.9764 84.056Z" fill="black"/>
<path d="M44.1524 59.096L44.0311 59.5811L44.0908 59.596H44.1524V59.096ZM44.6324 57.56L44.7905 58.0343L44.8044 58.0297L44.8181 58.0242L44.6324 57.56ZM46.0724 57.08L45.9802 56.5885L45.9743 56.5897L46.0724 57.08ZM60.6644 52.856L60.8512 53.3198L60.8512 53.3198L60.6644 52.856ZM74.0084 45.656L73.7358 45.2366L73.7254 45.2438L74.0084 45.656ZM77.9444 42.488L78.2892 42.8501L78.2892 42.8501L77.9444 42.488ZM81.3044 38.264L80.8756 38.0067L80.8725 38.0121L81.3044 38.264ZM80.0564 26.552L79.6964 26.8991L79.7028 26.9056L80.0564 26.552ZM73.5284 22.424L73.7002 21.9544L73.7002 21.9544L73.5284 22.424ZM65.3684 20.504L65.2993 20.9994L65.3119 21.0008L65.3684 20.504ZM50.7764 20.408L50.8207 20.9062L50.8316 20.9049L50.7764 20.408ZM41.8484 21.848L41.7367 21.3606L41.7344 21.3612L41.8484 21.848ZM33.5924 24.824L33.816 25.2712L33.8205 25.2689L33.5924 24.824ZM28.2164 29.432L27.7916 29.1683L27.7606 29.2182L27.742 29.2739L28.2164 29.432ZM27.9284 30.104L28.2819 30.4576L28.3393 30.4002L28.3756 30.3276L27.9284 30.104ZM26.7764 30.104L27.2507 29.9459L27.2295 29.8824L27.1924 29.8267L26.7764 30.104ZM26.6804 29.144L26.206 28.9859L26.206 28.9859L26.6804 29.144ZM26.8724 28.664L27.3196 28.8876L27.3221 28.8824L26.8724 28.664ZM32.1524 23.096L32.4113 23.5238L32.4144 23.5218L32.1524 23.096ZM40.5044 19.544L40.6351 20.0267L40.6417 20.0248L40.5044 19.544ZM49.7204 17.624L49.6571 17.128L49.6571 17.128L49.7204 17.624ZM71.7044 19.16L71.5573 19.638L71.5686 19.6412L71.7044 19.16ZM78.6164 22.136L78.3572 22.5636L78.3572 22.5636L78.6164 22.136ZM83.7044 26.936L83.2883 27.2134L83.2928 27.2199L83.7044 26.936ZM82.5524 41.72L82.9428 42.0323L82.9428 42.0323L82.5524 41.72ZM74.5844 48.728L74.3128 48.3082L74.3128 48.3082L74.5844 48.728ZM53.3684 57.848L53.4854 58.3342L53.4939 58.332L53.3684 57.848ZM40.3124 82.04L40.6831 81.7045L40.6831 81.7045L40.3124 82.04ZM38.0084 77.048L37.5144 77.1252L37.5148 77.1276L38.0084 77.048ZM41.2724 51.032L40.8094 50.843L40.8078 50.8471L41.2724 51.032ZM50.1044 32.792L50.5397 33.038L50.5459 33.027L50.5516 33.0156L50.1044 32.792ZM50.2004 31.544H49.7004V31.7511L49.8468 31.8976L50.2004 31.544ZM49.7204 30.776L49.3135 30.4854L49.2988 30.506L49.2863 30.5279L49.7204 30.776ZM51.1604 29.24L51.4949 29.6116L51.5046 29.6029L51.5139 29.5936L51.1604 29.24ZM53.0804 27.608L53.3671 28.0176L53.3671 28.0176L53.0804 27.608ZM55.9604 27.512L55.6604 27.912L55.6774 27.9247L55.6954 27.936L55.9604 27.512ZM55.0964 31.832L54.6733 31.5656L54.6733 31.5656L55.0964 31.832ZM50.9684 38.648L50.5379 38.3936L50.5336 38.401L50.9684 38.648ZM46.0724 48.248L45.6189 48.0374L45.6172 48.0411L46.0724 48.248ZM42.0404 59.48L42.522 59.6142L42.5226 59.6122L42.0404 59.48ZM40.6964 75.224L40.1997 75.2813L40.2008 75.2907L40.2022 75.3L40.6964 75.224ZM42.0404 79.832L41.5851 80.0389L41.5889 80.047L42.0404 79.832ZM45.0164 82.232L45.1144 81.7417L45.1099 81.7408L45.0164 82.232ZM46.4564 82.616L46.6001 82.1371L46.6 82.1371L46.4564 82.616ZM47.5124 83.576L47.9596 83.7996L48.0294 83.6599L48.0074 83.5053L47.5124 83.576ZM46.8404 83.96V83.46H46.7909L46.7423 83.4697L46.8404 83.96ZM44.7284 58.596C44.7281 58.596 44.7279 58.596 44.7276 58.596C44.7274 58.596 44.7271 58.596 44.7269 58.596C44.7266 58.596 44.7264 58.596 44.7261 58.596C44.7259 58.596 44.7256 58.596 44.7254 58.596C44.7251 58.596 44.7249 58.596 44.7246 58.596C44.7244 58.596 44.7241 58.596 44.7238 58.596C44.7236 58.596 44.7233 58.596 44.7231 58.596C44.7228 58.596 44.7226 58.596 44.7223 58.596C44.7221 58.596 44.7218 58.596 44.7216 58.596C44.7213 58.596 44.7211 58.596 44.7208 58.596C44.7205 58.596 44.7203 58.596 44.72 58.596C44.7198 58.596 44.7195 58.596 44.7193 58.596C44.719 58.596 44.7188 58.596 44.7185 58.596C44.7182 58.596 44.718 58.596 44.7177 58.596C44.7175 58.596 44.7172 58.596 44.717 58.596C44.7167 58.596 44.7164 58.596 44.7162 58.596C44.7159 58.596 44.7157 58.596 44.7154 58.596C44.7152 58.596 44.7149 58.596 44.7146 58.596C44.7144 58.596 44.7141 58.596 44.7139 58.596C44.7136 58.596 44.7133 58.596 44.7131 58.596C44.7128 58.596 44.7126 58.596 44.7123 58.596C44.712 58.596 44.7118 58.596 44.7115 58.596C44.7113 58.596 44.711 58.596 44.7107 58.596C44.7105 58.596 44.7102 58.596 44.71 58.596C44.7097 58.596 44.7094 58.596 44.7092 58.596C44.7089 58.596 44.7086 58.596 44.7084 58.596C44.7081 58.596 44.7079 58.596 44.7076 58.596C44.7073 58.596 44.7071 58.596 44.7068 58.596C44.7065 58.596 44.7063 58.596 44.706 58.596C44.7057 58.596 44.7055 58.596 44.7052 58.596C44.705 58.596 44.7047 58.596 44.7044 58.596C44.7042 58.596 44.7039 58.596 44.7036 58.596C44.7034 58.596 44.7031 58.596 44.7028 58.596C44.7026 58.596 44.7023 58.596 44.702 58.596C44.7018 58.596 44.7015 58.596 44.7012 58.596C44.701 58.596 44.7007 58.596 44.7004 58.596C44.7002 58.596 44.6999 58.596 44.6996 58.596C44.6994 58.596 44.6991 58.596 44.6988 58.596C44.6985 58.596 44.6983 58.596 44.698 58.596C44.6977 58.596 44.6975 58.596 44.6972 58.596C44.6969 58.596 44.6967 58.596 44.6964 58.596C44.6961 58.596 44.6959 58.596 44.6956 58.596C44.6953 58.596 44.695 58.596 44.6948 58.596C44.6945 58.596 44.6942 58.596 44.694 58.596C44.6937 58.596 44.6934 58.596 44.6931 58.596C44.6929 58.596 44.6926 58.596 44.6923 58.596C44.6921 58.596 44.6918 58.596 44.6915 58.596C44.6912 58.596 44.691 58.596 44.6907 58.596C44.6904 58.596 44.6901 58.596 44.6899 58.596C44.6896 58.596 44.6893 58.596 44.689 58.596C44.6888 58.596 44.6885 58.596 44.6882 58.596C44.6879 58.596 44.6877 58.596 44.6874 58.596C44.6871 58.596 44.6868 58.596 44.6866 58.596C44.6863 58.596 44.686 58.596 44.6857 58.596C44.6855 58.596 44.6852 58.596 44.6849 58.596C44.6846 58.596 44.6844 58.596 44.6841 58.596C44.6838 58.596 44.6835 58.596 44.6832 58.596C44.683 58.596 44.6827 58.596 44.6824 58.596C44.6821 58.596 44.6819 58.596 44.6816 58.596C44.6813 58.596 44.681 58.596 44.6807 58.596C44.6805 58.596 44.6802 58.596 44.6799 58.596C44.6796 58.596 44.6793 58.596 44.6791 58.596C44.6788 58.596 44.6785 58.596 44.6782 58.596C44.6779 58.596 44.6777 58.596 44.6774 58.596C44.6771 58.596 44.6768 58.596 44.6765 58.596C44.6762 58.596 44.676 58.596 44.6757 58.596C44.6754 58.596 44.6751 58.596 44.6748 58.596C44.6746 58.596 44.6743 58.596 44.674 58.596C44.6737 58.596 44.6734 58.596 44.6731 58.596C44.6729 58.596 44.6726 58.596 44.6723 58.596C44.672 58.596 44.6717 58.596 44.6714 58.596C44.6711 58.596 44.6709 58.596 44.6706 58.596C44.6703 58.596 44.67 58.596 44.6697 58.596C44.6694 58.596 44.6692 58.596 44.6689 58.596C44.6686 58.596 44.6683 58.596 44.668 58.596C44.6677 58.596 44.6674 58.596 44.6671 58.596C44.6669 58.596 44.6666 58.596 44.6663 58.596C44.666 58.596 44.6657 58.596 44.6654 58.596C44.6651 58.596 44.6648 58.596 44.6646 58.596C44.6643 58.596 44.664 58.596 44.6637 58.596C44.6634 58.596 44.6631 58.596 44.6628 58.596C44.6625 58.596 44.6622 58.596 44.662 58.596C44.6617 58.596 44.6614 58.596 44.6611 58.596C44.6608 58.596 44.6605 58.596 44.6602 58.596C44.6599 58.596 44.6596 58.596 44.6593 58.596C44.659 58.596 44.6588 58.596 44.6585 58.596C44.6582 58.596 44.6579 58.596 44.6576 58.596C44.6573 58.596 44.657 58.596 44.6567 58.596C44.6564 58.596 44.6561 58.596 44.6558 58.596C44.6555 58.596 44.6552 58.596 44.6549 58.596C44.6546 58.596 44.6544 58.596 44.6541 58.596C44.6538 58.596 44.6535 58.596 44.6532 58.596C44.6529 58.596 44.6526 58.596 44.6523 58.596C44.652 58.596 44.6517 58.596 44.6514 58.596C44.6511 58.596 44.6508 58.596 44.6505 58.596C44.6502 58.596 44.6499 58.596 44.6496 58.596C44.6493 58.596 44.649 58.596 44.6487 58.596C44.6484 58.596 44.6481 58.596 44.6478 58.596C44.6475 58.596 44.6472 58.596 44.6469 58.596C44.6466 58.596 44.6463 58.596 44.6461 58.596C44.6458 58.596 44.6455 58.596 44.6452 58.596C44.6449 58.596 44.6446 58.596 44.6443 58.596C44.644 58.596 44.6437 58.596 44.6434 58.596C44.6431 58.596 44.6428 58.596 44.6425 58.596C44.6422 58.596 44.6419 58.596 44.6416 58.596C44.6412 58.596 44.6409 58.596 44.6406 58.596C44.6403 58.596 44.64 58.596 44.6397 58.596C44.6394 58.596 44.6391 58.596 44.6388 58.596C44.6385 58.596 44.6382 58.596 44.6379 58.596C44.6376 58.596 44.6373 58.596 44.637 58.596C44.6367 58.596 44.6364 58.596 44.6361 58.596C44.6358 58.596 44.6355 58.596 44.6352 58.596C44.6349 58.596 44.6346 58.596 44.6343 58.596C44.634 58.596 44.6337 58.596 44.6334 58.596C44.6331 58.596 44.6327 58.596 44.6324 58.596C44.6321 58.596 44.6318 58.596 44.6315 58.596C44.6312 58.596 44.6309 58.596 44.6306 58.596C44.6303 58.596 44.63 58.596 44.6297 58.596C44.6294 58.596 44.6291 58.596 44.6288 58.596C44.6284 58.596 44.6281 58.596 44.6278 58.596C44.6275 58.596 44.6272 58.596 44.6269 58.596C44.6266 58.596 44.6263 58.596 44.626 58.596C44.6257 58.596 44.6254 58.596 44.625 58.596C44.6247 58.596 44.6244 58.596 44.6241 58.596C44.6238 58.596 44.6235 58.596 44.6232 58.596C44.6229 58.596 44.6226 58.596 44.6222 58.596C44.6219 58.596 44.6216 58.596 44.6213 58.596C44.621 58.596 44.6207 58.596 44.6204 58.596C44.6201 58.596 44.6198 58.596 44.6194 58.596C44.6191 58.596 44.6188 58.596 44.6185 58.596C44.6182 58.596 44.6179 58.596 44.6176 58.596C44.6172 58.596 44.6169 58.596 44.6166 58.596C44.6163 58.596 44.616 58.596 44.6157 58.596C44.6154 58.596 44.615 58.596 44.6147 58.596C44.6144 58.596 44.6141 58.596 44.6138 58.596C44.6135 58.596 44.6131 58.596 44.6128 58.596C44.6125 58.596 44.6122 58.596 44.6119 58.596C44.6116 58.596 44.6112 58.596 44.6109 58.596C44.6106 58.596 44.6103 58.596 44.61 58.596C44.6097 58.596 44.6093 58.596 44.609 58.596C44.6087 58.596 44.6084 58.596 44.6081 58.596C44.6077 58.596 44.6074 58.596 44.6071 58.596C44.6068 58.596 44.6065 58.596 44.6061 58.596C44.6058 58.596 44.6055 58.596 44.6052 58.596C44.6049 58.596 44.6045 58.596 44.6042 58.596C44.6039 58.596 44.6036 58.596 44.6033 58.596C44.6029 58.596 44.6026 58.596 44.6023 58.596C44.602 58.596 44.6017 58.596 44.6013 58.596C44.601 58.596 44.6007 58.596 44.6004 58.596C44.6 58.596 44.5997 58.596 44.5994 58.596C44.5991 58.596 44.5987 58.596 44.5984 58.596C44.5981 58.596 44.5978 58.596 44.5975 58.596C44.5971 58.596 44.5968 58.596 44.5965 58.596C44.5962 58.596 44.5958 58.596 44.5955 58.596C44.5952 58.596 44.5949 58.596 44.5945 58.596C44.5942 58.596 44.5939 58.596 44.5936 58.596C44.5932 58.596 44.5929 58.596 44.5926 58.596C44.5922 58.596 44.5919 58.596 44.5916 58.596C44.5913 58.596 44.5909 58.596 44.5906 58.596C44.5903 58.596 44.59 58.596 44.5896 58.596C44.5893 58.596 44.589 58.596 44.5886 58.596C44.5883 58.596 44.588 58.596 44.5877 58.596C44.5873 58.596 44.587 58.596 44.5867 58.596C44.5863 58.596 44.586 58.596 44.5857 58.596C44.5853 58.596 44.585 58.596 44.5847 58.596C44.5844 58.596 44.584 58.596 44.5837 58.596C44.5834 58.596 44.583 58.596 44.5827 58.596C44.5824 58.596 44.582 58.596 44.5817 58.596C44.5814 58.596 44.581 58.596 44.5807 58.596C44.5804 58.596 44.58 58.596 44.5797 58.596C44.5794 58.596 44.579 58.596 44.5787 58.596C44.5784 58.596 44.578 58.596 44.5777 58.596C44.5774 58.596 44.577 58.596 44.5767 58.596C44.5764 58.596 44.576 58.596 44.5757 58.596C44.5754 58.596 44.575 58.596 44.5747 58.596C44.5744 58.596 44.574 58.596 44.5737 58.596C44.5734 58.596 44.573 58.596 44.5727 58.596C44.5723 58.596 44.572 58.596 44.5717 58.596C44.5713 58.596 44.571 58.596 44.5707 58.596C44.5703 58.596 44.57 58.596 44.5696 58.596C44.5693 58.596 44.569 58.596 44.5686 58.596C44.5683 58.596 44.568 58.596 44.5676 58.596C44.5673 58.596 44.5669 58.596 44.5666 58.596C44.5663 58.596 44.5659 58.596 44.5656 58.596C44.5652 58.596 44.5649 58.596 44.5646 58.596C44.5642 58.596 44.5639 58.596 44.5635 58.596C44.5632 58.596 44.5629 58.596 44.5625 58.596C44.5622 58.596 44.5618 58.596 44.5615 58.596C44.5611 58.596 44.5608 58.596 44.5605 58.596C44.5601 58.596 44.5598 58.596 44.5594 58.596C44.5591 58.596 44.5587 58.596 44.5584 58.596C44.5581 58.596 44.5577 58.596 44.5574 58.596C44.557 58.596 44.5567 58.596 44.5563 58.596C44.556 58.596 44.5557 58.596 44.5553 58.596C44.555 58.596 44.5546 58.596 44.5543 58.596C44.5539 58.596 44.5536 58.596 44.5532 58.596C44.5529 58.596 44.5525 58.596 44.5522 58.596C44.5519 58.596 44.5515 58.596 44.5512 58.596C44.5508 58.596 44.5505 58.596 44.5501 58.596C44.5498 58.596 44.5494 58.596 44.5491 58.596C44.5487 58.596 44.5484 58.596 44.548 58.596C44.5477 58.596 44.5473 58.596 44.547 58.596C44.5466 58.596 44.5463 58.596 44.5459 58.596C44.5456 58.596 44.5452 58.596 44.5449 58.596C44.5445 58.596 44.5442 58.596 44.5438 58.596C44.5435 58.596 44.5431 58.596 44.5428 58.596C44.5424 58.596 44.5421 58.596 44.5417 58.596C44.5414 58.596 44.541 58.596 44.5407 58.596C44.5403 58.596 44.54 58.596 44.5396 58.596C44.5393 58.596 44.5389 58.596 44.5386 58.596C44.5382 58.596 44.5379 58.596 44.5375 58.596C44.5372 58.596 44.5368 58.596 44.5365 58.596C44.5361 58.596 44.5358 58.596 44.5354 58.596C44.535 58.596 44.5347 58.596 44.5343 58.596C44.534 58.596 44.5336 58.596 44.5333 58.596C44.5329 58.596 44.5326 58.596 44.5322 58.596C44.5318 58.596 44.5315 58.596 44.5311 58.596C44.5308 58.596 44.5304 58.596 44.5301 58.596C44.5297 58.596 44.5294 58.596 44.529 58.596C44.5286 58.596 44.5283 58.596 44.5279 58.596C44.5276 58.596 44.5272 58.596 44.5269 58.596C44.5265 58.596 44.5261 58.596 44.5258 58.596C44.5254 58.596 44.5251 58.596 44.5247 58.596C44.5243 58.596 44.524 58.596 44.5236 58.596C44.5233 58.596 44.5229 58.596 44.5225 58.596C44.5222 58.596 44.5218 58.596 44.5215 58.596C44.5211 58.596 44.5207 58.596 44.5204 58.596C44.52 58.596 44.5197 58.596 44.5193 58.596C44.5189 58.596 44.5186 58.596 44.5182 58.596C44.5179 58.596 44.5175 58.596 44.5171 58.596C44.5168 58.596 44.5164 58.596 44.516 58.596C44.5157 58.596 44.5153 58.596 44.515 58.596C44.5146 58.596 44.5142 58.596 44.5139 58.596C44.5135 58.596 44.5131 58.596 44.5128 58.596C44.5124 58.596 44.512 58.596 44.5117 58.596C44.5113 58.596 44.5109 58.596 44.5106 58.596C44.5102 58.596 44.5099 58.596 44.5095 58.596C44.5091 58.596 44.5088 58.596 44.5084 58.596C44.508 58.596 44.5077 58.596 44.5073 58.596C44.5069 58.596 44.5066 58.596 44.5062 58.596C44.5058 58.596 44.5055 58.596 44.5051 58.596C44.5047 58.596 44.5043 58.596 44.504 58.596C44.5036 58.596 44.5032 58.596 44.5029 58.596C44.5025 58.596 44.5021 58.596 44.5018 58.596C44.5014 58.596 44.501 58.596 44.5007 58.596C44.5003 58.596 44.4999 58.596 44.4996 58.596C44.4992 58.596 44.4988 58.596 44.4984 58.596C44.4981 58.596 44.4977 58.596 44.4973 58.596C44.497 58.596 44.4966 58.596 44.4962 58.596C44.4958 58.596 44.4955 58.596 44.4951 58.596C44.4947 58.596 44.4944 58.596 44.494 58.596C44.4936 58.596 44.4932 58.596 44.4929 58.596C44.4925 58.596 44.4921 58.596 44.4917 58.596C44.4914 58.596 44.491 58.596 44.4906 58.596C44.4902 58.596 44.4899 58.596 44.4895 58.596C44.4891 58.596 44.4888 58.596 44.4884 58.596C44.488 58.596 44.4876 58.596 44.4872 58.596C44.4869 58.596 44.4865 58.596 44.4861 58.596C44.4857 58.596 44.4854 58.596 44.485 58.596C44.4846 58.596 44.4842 58.596 44.4839 58.596C44.4835 58.596 44.4831 58.596 44.4827 58.596C44.4824 58.596 44.482 58.596 44.4816 58.596C44.4812 58.596 44.4808 58.596 44.4805 58.596C44.4801 58.596 44.4797 58.596 44.4793 58.596C44.4789 58.596 44.4786 58.596 44.4782 58.596C44.4778 58.596 44.4774 58.596 44.4771 58.596C44.4767 58.596 44.4763 58.596 44.4759 58.596C44.4755 58.596 44.4752 58.596 44.4748 58.596C44.4744 58.596 44.474 58.596 44.4736 58.596C44.4732 58.596 44.4729 58.596 44.4725 58.596C44.4721 58.596 44.4717 58.596 44.4713 58.596C44.471 58.596 44.4706 58.596 44.4702 58.596C44.4698 58.596 44.4694 58.596 44.469 58.596C44.4687 58.596 44.4683 58.596 44.4679 58.596C44.4675 58.596 44.4671 58.596 44.4667 58.596C44.4664 58.596 44.466 58.596 44.4656 58.596C44.4652 58.596 44.4648 58.596 44.4644 58.596C44.464 58.596 44.4637 58.596 44.4633 58.596C44.4629 58.596 44.4625 58.596 44.4621 58.596C44.4617 58.596 44.4613 58.596 44.461 58.596C44.4606 58.596 44.4602 58.596 44.4598 58.596C44.4594 58.596 44.459 58.596 44.4586 58.596C44.4582 58.596 44.4579 58.596 44.4575 58.596C44.4571 58.596 44.4567 58.596 44.4563 58.596C44.4559 58.596 44.4555 58.596 44.4551 58.596C44.4547 58.596 44.4544 58.596 44.454 58.596C44.4536 58.596 44.4532 58.596 44.4528 58.596C44.4524 58.596 44.452 58.596 44.4516 58.596C44.4512 58.596 44.4508 58.596 44.4505 58.596C44.4501 58.596 44.4497 58.596 44.4493 58.596C44.4489 58.596 44.4485 58.596 44.4481 58.596C44.4477 58.596 44.4473 58.596 44.4469 58.596C44.4465 58.596 44.4461 58.596 44.4457 58.596C44.4454 58.596 44.445 58.596 44.4446 58.596C44.4442 58.596 44.4438 58.596 44.4434 58.596C44.443 58.596 44.4426 58.596 44.4422 58.596C44.4418 58.596 44.4414 58.596 44.441 58.596C44.4406 58.596 44.4402 58.596 44.4398 58.596C44.4394 58.596 44.439 58.596 44.4386 58.596C44.4383 58.596 44.4379 58.596 44.4375 58.596C44.4371 58.596 44.4367 58.596 44.4363 58.596C44.4359 58.596 44.4355 58.596 44.4351 58.596C44.4347 58.596 44.4343 58.596 44.4339 58.596C44.4335 58.596 44.4331 58.596 44.4327 58.596C44.4323 58.596 44.4319 58.596 44.4315 58.596C44.4311 58.596 44.4307 58.596 44.4303 58.596C44.4299 58.596 44.4295 58.596 44.4291 58.596C44.4287 58.596 44.4283 58.596 44.4279 58.596C44.4275 58.596 44.4271 58.596 44.4267 58.596C44.4263 58.596 44.4259 58.596 44.4255 58.596C44.4251 58.596 44.4247 58.596 44.4243 58.596C44.4239 58.596 44.4235 58.596 44.4231 58.596C44.4227 58.596 44.4223 58.596 44.4219 58.596C44.4215 58.596 44.4211 58.596 44.4207 58.596C44.4203 58.596 44.4199 58.596 44.4195 58.596C44.419 58.596 44.4186 58.596 44.4182 58.596C44.4178 58.596 44.4174 58.596 44.417 58.596C44.4166 58.596 44.4162 58.596 44.4158 58.596C44.4154 58.596 44.415 58.596 44.4146 58.596C44.4142 58.596 44.4138 58.596 44.4134 58.596C44.413 58.596 44.4126 58.596 44.4122 58.596C44.4117 58.596 44.4113 58.596 44.4109 58.596C44.4105 58.596 44.4101 58.596 44.4097 58.596C44.4093 58.596 44.4089 58.596 44.4085 58.596C44.4081 58.596 44.4077 58.596 44.4073 58.596C44.4069 58.596 44.4064 58.596 44.406 58.596C44.4056 58.596 44.4052 58.596 44.4048 58.596C44.4044 58.596 44.404 58.596 44.4036 58.596C44.4032 58.596 44.4028 58.596 44.4023 58.596C44.4019 58.596 44.4015 58.596 44.4011 58.596C44.4007 58.596 44.4003 58.596 44.3999 58.596C44.3995 58.596 44.3991 58.596 44.3986 58.596C44.3982 58.596 44.3978 58.596 44.3974 58.596C44.397 58.596 44.3966 58.596 44.3962 58.596C44.3958 58.596 44.3953 58.596 44.3949 58.596C44.3945 58.596 44.3941 58.596 44.3937 58.596C44.3933 58.596 44.3929 58.596 44.3924 58.596C44.392 58.596 44.3916 58.596 44.3912 58.596C44.3908 58.596 44.3904 58.596 44.39 58.596C44.3895 58.596 44.3891 58.596 44.3887 58.596C44.3883 58.596 44.3879 58.596 44.3875 58.596C44.387 58.596 44.3866 58.596 44.3862 58.596C44.3858 58.596 44.3854 58.596 44.385 58.596C44.3845 58.596 44.3841 58.596 44.3837 58.596C44.3833 58.596 44.3829 58.596 44.3824 58.596C44.382 58.596 44.3816 58.596 44.3812 58.596C44.3808 58.596 44.3804 58.596 44.3799 58.596C44.3795 58.596 44.3791 58.596 44.3787 58.596C44.3783 58.596 44.3778 58.596 44.3774 58.596C44.377 58.596 44.3766 58.596 44.3762 58.596C44.3757 58.596 44.3753 58.596 44.3749 58.596C44.3745 58.596 44.374 58.596 44.3736 58.596C44.3732 58.596 44.3728 58.596 44.3724 58.596C44.3719 58.596 44.3715 58.596 44.3711 58.596C44.3707 58.596 44.3702 58.596 44.3698 58.596C44.3694 58.596 44.369 58.596 44.3686 58.596C44.3681 58.596 44.3677 58.596 44.3673 58.596C44.3669 58.596 44.3664 58.596 44.366 58.596C44.3656 58.596 44.3652 58.596 44.3647 58.596C44.3643 58.596 44.3639 58.596 44.3635 58.596C44.363 58.596 44.3626 58.596 44.3622 58.596C44.3617 58.596 44.3613 58.596 44.3609 58.596C44.3605 58.596 44.36 58.596 44.3596 58.596C44.3592 58.596 44.3588 58.596 44.3583 58.596C44.3579 58.596 44.3575 58.596 44.357 58.596C44.3566 58.596 44.3562 58.596 44.3558 58.596C44.3553 58.596 44.3549 58.596 44.3545 58.596C44.354 58.596 44.3536 58.596 44.3532 58.596C44.3528 58.596 44.3523 58.596 44.3519 58.596C44.3515 58.596 44.351 58.596 44.3506 58.596C44.3502 58.596 44.3497 58.596 44.3493 58.596C44.3489 58.596 44.3485 58.596 44.348 58.596C44.3476 58.596 44.3472 58.596 44.3467 58.596C44.3463 58.596 44.3459 58.596 44.3454 58.596C44.345 58.596 44.3446 58.596 44.3441 58.596C44.3437 58.596 44.3433 58.596 44.3428 58.596C44.3424 58.596 44.342 58.596 44.3415 58.596C44.3411 58.596 44.3407 58.596 44.3402 58.596C44.3398 58.596 44.3394 58.596 44.3389 58.596C44.3385 58.596 44.338 58.596 44.3376 58.596C44.3372 58.596 44.3367 58.596 44.3363 58.596C44.3359 58.596 44.3354 58.596 44.335 58.596C44.3346 58.596 44.3341 58.596 44.3337 58.596C44.3333 58.596 44.3328 58.596 44.3324 58.596C44.3319 58.596 44.3315 58.596 44.3311 58.596C44.3306 58.596 44.3302 58.596 44.3297 58.596C44.3293 58.596 44.3289 58.596 44.3284 58.596C44.328 58.596 44.3276 58.596 44.3271 58.596C44.3267 58.596 44.3262 58.596 44.3258 58.596C44.3254 58.596 44.3249 58.596 44.3245 58.596C44.324 58.596 44.3236 58.596 44.3232 58.596C44.3227 58.596 44.3223 58.596 44.3218 58.596C44.3214 58.596 44.3209 58.596 44.3205 58.596C44.3201 58.596 44.3196 58.596 44.3192 58.596C44.3187 58.596 44.3183 58.596 44.3178 58.596C44.3174 58.596 44.317 58.596 44.3165 58.596C44.3161 58.596 44.3156 58.596 44.3152 58.596C44.3147 58.596 44.3143 58.596 44.3139 58.596C44.3134 58.596 44.313 58.596 44.3125 58.596C44.3121 58.596 44.3116 58.596 44.3112 58.596C44.3107 58.596 44.3103 58.596 44.3099 58.596C44.3094 58.596 44.309 58.596 44.3085 58.596C44.3081 58.596 44.3076 58.596 44.3072 58.596C44.3067 58.596 44.3063 58.596 44.3058 58.596C44.3054 58.596 44.3049 58.596 44.3045 58.596C44.304 58.596 44.3036 58.596 44.3031 58.596C44.3027 58.596 44.3022 58.596 44.3018 58.596C44.3014 58.596 44.3009 58.596 44.3005 58.596C44.3 58.596 44.2996 58.596 44.2991 58.596C44.2987 58.596 44.2982 58.596 44.2978 58.596C44.2973 58.596 44.2969 58.596 44.2964 58.596C44.296 58.596 44.2955 58.596 44.2951 58.596C44.2946 58.596 44.2941 58.596 44.2937 58.596C44.2932 58.596 44.2928 58.596 44.2923 58.596C44.2919 58.596 44.2914 58.596 44.291 58.596C44.2905 58.596 44.2901 58.596 44.2896 58.596C44.2892 58.596 44.2887 58.596 44.2883 58.596C44.2878 58.596 44.2874 58.596 44.2869 58.596C44.2864 58.596 44.286 58.596 44.2855 58.596C44.2851 58.596 44.2846 58.596 44.2842 58.596C44.2837 58.596 44.2833 58.596 44.2828 58.596C44.2824 58.596 44.2819 58.596 44.2814 58.596C44.281 58.596 44.2805 58.596 44.2801 58.596C44.2796 58.596 44.2792 58.596 44.2787 58.596C44.2782 58.596 44.2778 58.596 44.2773 58.596C44.2769 58.596 44.2764 58.596 44.276 58.596C44.2755 58.596 44.275 58.596 44.2746 58.596C44.2741 58.596 44.2737 58.596 44.2732 58.596C44.2727 58.596 44.2723 58.596 44.2718 58.596C44.2714 58.596 44.2709 58.596 44.2705 58.596C44.27 58.596 44.2695 58.596 44.2691 58.596C44.2686 58.596 44.2681 58.596 44.2677 58.596C44.2672 58.596 44.2668 58.596 44.2663 58.596C44.2658 58.596 44.2654 58.596 44.2649 58.596C44.2645 58.596 44.264 58.596 44.2635 58.596C44.2631 58.596 44.2626 58.596 44.2621 58.596C44.2617 58.596 44.2612 58.596 44.2608 58.596C44.2603 58.596 44.2598 58.596 44.2594 58.596C44.2589 58.596 44.2584 58.596 44.258 58.596C44.2575 58.596 44.257 58.596 44.2566 58.596C44.2561 58.596 44.2556 58.596 44.2552 58.596C44.2547 58.596 44.2543 58.596 44.2538 58.596C44.2533 58.596 44.2529 58.596 44.2524 58.596C44.2519 58.596 44.2515 58.596 44.251 58.596C44.2505 58.596 44.2501 58.596 44.2496 58.596C44.2491 58.596 44.2487 58.596 44.2482 58.596C44.2477 58.596 44.2472 58.596 44.2468 58.596C44.2463 58.596 44.2458 58.596 44.2454 58.596C44.2449 58.596 44.2444 58.596 44.244 58.596C44.2435 58.596 44.243 58.596 44.2426 58.596C44.2421 58.596 44.2416 58.596 44.2412 58.596C44.2407 58.596 44.2402 58.596 44.2397 58.596C44.2393 58.596 44.2388 58.596 44.2383 58.596C44.2379 58.596 44.2374 58.596 44.2369 58.596C44.2364 58.596 44.236 58.596 44.2355 58.596C44.235 58.596 44.2346 58.596 44.2341 58.596C44.2336 58.596 44.2331 58.596 44.2327 58.596C44.2322 58.596 44.2317 58.596 44.2312 58.596C44.2308 58.596 44.2303 58.596 44.2298 58.596C44.2293 58.596 44.2289 58.596 44.2284 58.596C44.2279 58.596 44.2274 58.596 44.227 58.596C44.2265 58.596 44.226 58.596 44.2255 58.596C44.2251 58.596 44.2246 58.596 44.2241 58.596C44.2236 58.596 44.2232 58.596 44.2227 58.596C44.2222 58.596 44.2217 58.596 44.2213 58.596C44.2208 58.596 44.2203 58.596 44.2198 58.596C44.2193 58.596 44.2189 58.596 44.2184 58.596C44.2179 58.596 44.2174 58.596 44.217 58.596C44.2165 58.596 44.216 58.596 44.2155 58.596C44.215 58.596 44.2146 58.596 44.2141 58.596C44.2136 58.596 44.2131 58.596 44.2126 58.596C44.2122 58.596 44.2117 58.596 44.2112 58.596C44.2107 58.596 44.2102 58.596 44.2098 58.596C44.2093 58.596 44.2088 58.596 44.2083 58.596C44.2078 58.596 44.2074 58.596 44.2069 58.596C44.2064 58.596 44.2059 58.596 44.2054 58.596C44.2049 58.596 44.2045 58.596 44.204 58.596C44.2035 58.596 44.203 58.596 44.2025 58.596C44.202 58.596 44.2016 58.596 44.2011 58.596C44.2006 58.596 44.2001 58.596 44.1996 58.596C44.1991 58.596 44.1987 58.596 44.1982 58.596C44.1977 58.596 44.1972 58.596 44.1967 58.596C44.1962 58.596 44.1957 58.596 44.1953 58.596C44.1948 58.596 44.1943 58.596 44.1938 58.596C44.1933 58.596 44.1928 58.596 44.1923 58.596C44.1919 58.596 44.1914 58.596 44.1909 58.596C44.1904 58.596 44.1899 58.596 44.1894 58.596C44.1889 58.596 44.1884 58.596 44.188 58.596C44.1875 58.596 44.187 58.596 44.1865 58.596C44.186 58.596 44.1855 58.596 44.185 58.596C44.1845 58.596 44.184 58.596 44.1836 58.596C44.1831 58.596 44.1826 58.596 44.1821 58.596C44.1816 58.596 44.1811 58.596 44.1806 58.596C44.1801 58.596 44.1796 58.596 44.1791 58.596C44.1786 58.596 44.1782 58.596 44.1777 58.596C44.1772 58.596 44.1767 58.596 44.1762 58.596C44.1757 58.596 44.1752 58.596 44.1747 58.596C44.1742 58.596 44.1737 58.596 44.1732 58.596C44.1727 58.596 44.1722 58.596 44.1718 58.596C44.1713 58.596 44.1708 58.596 44.1703 58.596C44.1698 58.596 44.1693 58.596 44.1688 58.596C44.1683 58.596 44.1678 58.596 44.1673 58.596C44.1668 58.596 44.1663 58.596 44.1658 58.596C44.1653 58.596 44.1648 58.596 44.1643 58.596C44.1638 58.596 44.1633 58.596 44.1628 58.596C44.1623 58.596 44.1618 58.596 44.1613 58.596C44.1609 58.596 44.1604 58.596 44.1599 58.596C44.1594 58.596 44.1589 58.596 44.1584 58.596C44.1579 58.596 44.1574 58.596 44.1569 58.596C44.1564 58.596 44.1559 58.596 44.1554 58.596C44.1549 58.596 44.1544 58.596 44.1539 58.596C44.1534 58.596 44.1529 58.596 44.1524 58.596V59.596C44.1529 59.596 44.1534 59.596 44.1539 59.596C44.1544 59.596 44.1549 59.596 44.1554 59.596C44.1559 59.596 44.1564 59.596 44.1569 59.596C44.1574 59.596 44.1579 59.596 44.1584 59.596C44.1589 59.596 44.1594 59.596 44.1599 59.596C44.1604 59.596 44.1609 59.596 44.1613 59.596C44.1618 59.596 44.1623 59.596 44.1628 59.596C44.1633 59.596 44.1638 59.596 44.1643 59.596C44.1648 59.596 44.1653 59.596 44.1658 59.596C44.1663 59.596 44.1668 59.596 44.1673 59.596C44.1678 59.596 44.1683 59.596 44.1688 59.596C44.1693 59.596 44.1698 59.596 44.1703 59.596C44.1708 59.596 44.1713 59.596 44.1718 59.596C44.1722 59.596 44.1727 59.596 44.1732 59.596C44.1737 59.596 44.1742 59.596 44.1747 59.596C44.1752 59.596 44.1757 59.596 44.1762 59.596C44.1767 59.596 44.1772 59.596 44.1777 59.596C44.1782 59.596 44.1786 59.596 44.1791 59.596C44.1796 59.596 44.1801 59.596 44.1806 59.596C44.1811 59.596 44.1816 59.596 44.1821 59.596C44.1826 59.596 44.1831 59.596 44.1836 59.596C44.184 59.596 44.1845 59.596 44.185 59.596C44.1855 59.596 44.186 59.596 44.1865 59.596C44.187 59.596 44.1875 59.596 44.188 59.596C44.1884 59.596 44.1889 59.596 44.1894 59.596C44.1899 59.596 44.1904 59.596 44.1909 59.596C44.1914 59.596 44.1919 59.596 44.1923 59.596C44.1928 59.596 44.1933 59.596 44.1938 59.596C44.1943 59.596 44.1948 59.596 44.1953 59.596C44.1957 59.596 44.1962 59.596 44.1967 59.596C44.1972 59.596 44.1977 59.596 44.1982 59.596C44.1987 59.596 44.1991 59.596 44.1996 59.596C44.2001 59.596 44.2006 59.596 44.2011 59.596C44.2016 59.596 44.202 59.596 44.2025 59.596C44.203 59.596 44.2035 59.596 44.204 59.596C44.2045 59.596 44.2049 59.596 44.2054 59.596C44.2059 59.596 44.2064 59.596 44.2069 59.596C44.2074 59.596 44.2078 59.596 44.2083 59.596C44.2088 59.596 44.2093 59.596 44.2098 59.596C44.2102 59.596 44.2107 59.596 44.2112 59.596C44.2117 59.596 44.2122 59.596 44.2126 59.596C44.2131 59.596 44.2136 59.596 44.2141 59.596C44.2146 59.596 44.215 59.596 44.2155 59.596C44.216 59.596 44.2165 59.596 44.217 59.596C44.2174 59.596 44.2179 59.596 44.2184 59.596C44.2189 59.596 44.2193 59.596 44.2198 59.596C44.2203 59.596 44.2208 59.596 44.2213 59.596C44.2217 59.596 44.2222 59.596 44.2227 59.596C44.2232 59.596 44.2236 59.596 44.2241 59.596C44.2246 59.596 44.2251 59.596 44.2255 59.596C44.226 59.596 44.2265 59.596 44.227 59.596C44.2274 59.596 44.2279 59.596 44.2284 59.596C44.2289 59.596 44.2293 59.596 44.2298 59.596C44.2303 59.596 44.2308 59.596 44.2312 59.596C44.2317 59.596 44.2322 59.596 44.2327 59.596C44.2331 59.596 44.2336 59.596 44.2341 59.596C44.2346 59.596 44.235 59.596 44.2355 59.596C44.236 59.596 44.2364 59.596 44.2369 59.596C44.2374 59.596 44.2379 59.596 44.2383 59.596C44.2388 59.596 44.2393 59.596 44.2397 59.596C44.2402 59.596 44.2407 59.596 44.2412 59.596C44.2416 59.596 44.2421 59.596 44.2426 59.596C44.243 59.596 44.2435 59.596 44.244 59.596C44.2444 59.596 44.2449 59.596 44.2454 59.596C44.2458 59.596 44.2463 59.596 44.2468 59.596C44.2472 59.596 44.2477 59.596 44.2482 59.596C44.2487 59.596 44.2491 59.596 44.2496 59.596C44.2501 59.596 44.2505 59.596 44.251 59.596C44.2515 59.596 44.2519 59.596 44.2524 59.596C44.2529 59.596 44.2533 59.596 44.2538 59.596C44.2543 59.596 44.2547 59.596 44.2552 59.596C44.2556 59.596 44.2561 59.596 44.2566 59.596C44.257 59.596 44.2575 59.596 44.258 59.596C44.2584 59.596 44.2589 59.596 44.2594 59.596C44.2598 59.596 44.2603 59.596 44.2608 59.596C44.2612 59.596 44.2617 59.596 44.2621 59.596C44.2626 59.596 44.2631 59.596 44.2635 59.596C44.264 59.596 44.2645 59.596 44.2649 59.596C44.2654 59.596 44.2658 59.596 44.2663 59.596C44.2668 59.596 44.2672 59.596 44.2677 59.596C44.2681 59.596 44.2686 59.596 44.2691 59.596C44.2695 59.596 44.27 59.596 44.2705 59.596C44.2709 59.596 44.2714 59.596 44.2718 59.596C44.2723 59.596 44.2727 59.596 44.2732 59.596C44.2737 59.596 44.2741 59.596 44.2746 59.596C44.275 59.596 44.2755 59.596 44.276 59.596C44.2764 59.596 44.2769 59.596 44.2773 59.596C44.2778 59.596 44.2782 59.596 44.2787 59.596C44.2792 59.596 44.2796 59.596 44.2801 59.596C44.2805 59.596 44.281 59.596 44.2814 59.596C44.2819 59.596 44.2824 59.596 44.2828 59.596C44.2833 59.596 44.2837 59.596 44.2842 59.596C44.2846 59.596 44.2851 59.596 44.2855 59.596C44.286 59.596 44.2864 59.596 44.2869 59.596C44.2874 59.596 44.2878 59.596 44.2883 59.596C44.2887 59.596 44.2892 59.596 44.2896 59.596C44.2901 59.596 44.2905 59.596 44.291 59.596C44.2914 59.596 44.2919 59.596 44.2923 59.596C44.2928 59.596 44.2932 59.596 44.2937 59.596C44.2941 59.596 44.2946 59.596 44.2951 59.596C44.2955 59.596 44.296 59.596 44.2964 59.596C44.2969 59.596 44.2973 59.596 44.2978 59.596C44.2982 59.596 44.2987 59.596 44.2991 59.596C44.2996 59.596 44.3 59.596 44.3005 59.596C44.3009 59.596 44.3014 59.596 44.3018 59.596C44.3022 59.596 44.3027 59.596 44.3031 59.596C44.3036 59.596 44.304 59.596 44.3045 59.596C44.3049 59.596 44.3054 59.596 44.3058 59.596C44.3063 59.596 44.3067 59.596 44.3072 59.596C44.3076 59.596 44.3081 59.596 44.3085 59.596C44.309 59.596 44.3094 59.596 44.3099 59.596C44.3103 59.596 44.3107 59.596 44.3112 59.596C44.3116 59.596 44.3121 59.596 44.3125 59.596C44.313 59.596 44.3134 59.596 44.3139 59.596C44.3143 59.596 44.3147 59.596 44.3152 59.596C44.3156 59.596 44.3161 59.596 44.3165 59.596C44.317 59.596 44.3174 59.596 44.3178 59.596C44.3183 59.596 44.3187 59.596 44.3192 59.596C44.3196 59.596 44.3201 59.596 44.3205 59.596C44.3209 59.596 44.3214 59.596 44.3218 59.596C44.3223 59.596 44.3227 59.596 44.3232 59.596C44.3236 59.596 44.324 59.596 44.3245 59.596C44.3249 59.596 44.3254 59.596 44.3258 59.596C44.3262 59.596 44.3267 59.596 44.3271 59.596C44.3276 59.596 44.328 59.596 44.3284 59.596C44.3289 59.596 44.3293 59.596 44.3297 59.596C44.3302 59.596 44.3306 59.596 44.3311 59.596C44.3315 59.596 44.3319 59.596 44.3324 59.596C44.3328 59.596 44.3333 59.596 44.3337 59.596C44.3341 59.596 44.3346 59.596 44.335 59.596C44.3354 59.596 44.3359 59.596 44.3363 59.596C44.3367 59.596 44.3372 59.596 44.3376 59.596C44.338 59.596 44.3385 59.596 44.3389 59.596C44.3394 59.596 44.3398 59.596 44.3402 59.596C44.3407 59.596 44.3411 59.596 44.3415 59.596C44.342 59.596 44.3424 59.596 44.3428 59.596C44.3433 59.596 44.3437 59.596 44.3441 59.596C44.3446 59.596 44.345 59.596 44.3454 59.596C44.3459 59.596 44.3463 59.596 44.3467 59.596C44.3472 59.596 44.3476 59.596 44.348 59.596C44.3485 59.596 44.3489 59.596 44.3493 59.596C44.3497 59.596 44.3502 59.596 44.3506 59.596C44.351 59.596 44.3515 59.596 44.3519 59.596C44.3523 59.596 44.3528 59.596 44.3532 59.596C44.3536 59.596 44.354 59.596 44.3545 59.596C44.3549 59.596 44.3553 59.596 44.3558 59.596C44.3562 59.596 44.3566 59.596 44.357 59.596C44.3575 59.596 44.3579 59.596 44.3583 59.596C44.3588 59.596 44.3592 59.596 44.3596 59.596C44.36 59.596 44.3605 59.596 44.3609 59.596C44.3613 59.596 44.3617 59.596 44.3622 59.596C44.3626 59.596 44.363 59.596 44.3635 59.596C44.3639 59.596 44.3643 59.596 44.3647 59.596C44.3652 59.596 44.3656 59.596 44.366 59.596C44.3664 59.596 44.3669 59.596 44.3673 59.596C44.3677 59.596 44.3681 59.596 44.3686 59.596C44.369 59.596 44.3694 59.596 44.3698 59.596C44.3702 59.596 44.3707 59.596 44.3711 59.596C44.3715 59.596 44.3719 59.596 44.3724 59.596C44.3728 59.596 44.3732 59.596 44.3736 59.596C44.374 59.596 44.3745 59.596 44.3749 59.596C44.3753 59.596 44.3757 59.596 44.3762 59.596C44.3766 59.596 44.377 59.596 44.3774 59.596C44.3778 59.596 44.3783 59.596 44.3787 59.596C44.3791 59.596 44.3795 59.596 44.3799 59.596C44.3804 59.596 44.3808 59.596 44.3812 59.596C44.3816 59.596 44.382 59.596 44.3824 59.596C44.3829 59.596 44.3833 59.596 44.3837 59.596C44.3841 59.596 44.3845 59.596 44.385 59.596C44.3854 59.596 44.3858 59.596 44.3862 59.596C44.3866 59.596 44.387 59.596 44.3875 59.596C44.3879 59.596 44.3883 59.596 44.3887 59.596C44.3891 59.596 44.3895 59.596 44.39 59.596C44.3904 59.596 44.3908 59.596 44.3912 59.596C44.3916 59.596 44.392 59.596 44.3924 59.596C44.3929 59.596 44.3933 59.596 44.3937 59.596C44.3941 59.596 44.3945 59.596 44.3949 59.596C44.3953 59.596 44.3958 59.596 44.3962 59.596C44.3966 59.596 44.397 59.596 44.3974 59.596C44.3978 59.596 44.3982 59.596 44.3986 59.596C44.3991 59.596 44.3995 59.596 44.3999 59.596C44.4003 59.596 44.4007 59.596 44.4011 59.596C44.4015 59.596 44.4019 59.596 44.4023 59.596C44.4028 59.596 44.4032 59.596 44.4036 59.596C44.404 59.596 44.4044 59.596 44.4048 59.596C44.4052 59.596 44.4056 59.596 44.406 59.596C44.4064 59.596 44.4069 59.596 44.4073 59.596C44.4077 59.596 44.4081 59.596 44.4085 59.596C44.4089 59.596 44.4093 59.596 44.4097 59.596C44.4101 59.596 44.4105 59.596 44.4109 59.596C44.4113 59.596 44.4117 59.596 44.4122 59.596C44.4126 59.596 44.413 59.596 44.4134 59.596C44.4138 59.596 44.4142 59.596 44.4146 59.596C44.415 59.596 44.4154 59.596 44.4158 59.596C44.4162 59.596 44.4166 59.596 44.417 59.596C44.4174 59.596 44.4178 59.596 44.4182 59.596C44.4186 59.596 44.419 59.596 44.4195 59.596C44.4199 59.596 44.4203 59.596 44.4207 59.596C44.4211 59.596 44.4215 59.596 44.4219 59.596C44.4223 59.596 44.4227 59.596 44.4231 59.596C44.4235 59.596 44.4239 59.596 44.4243 59.596C44.4247 59.596 44.4251 59.596 44.4255 59.596C44.4259 59.596 44.4263 59.596 44.4267 59.596C44.4271 59.596 44.4275 59.596 44.4279 59.596C44.4283 59.596 44.4287 59.596 44.4291 59.596C44.4295 59.596 44.4299 59.596 44.4303 59.596C44.4307 59.596 44.4311 59.596 44.4315 59.596C44.4319 59.596 44.4323 59.596 44.4327 59.596C44.4331 59.596 44.4335 59.596 44.4339 59.596C44.4343 59.596 44.4347 59.596 44.4351 59.596C44.4355 59.596 44.4359 59.596 44.4363 59.596C44.4367 59.596 44.4371 59.596 44.4375 59.596C44.4379 59.596 44.4383 59.596 44.4386 59.596C44.439 59.596 44.4394 59.596 44.4398 59.596C44.4402 59.596 44.4406 59.596 44.441 59.596C44.4414 59.596 44.4418 59.596 44.4422 59.596C44.4426 59.596 44.443 59.596 44.4434 59.596C44.4438 59.596 44.4442 59.596 44.4446 59.596C44.445 59.596 44.4454 59.596 44.4457 59.596C44.4461 59.596 44.4465 59.596 44.4469 59.596C44.4473 59.596 44.4477 59.596 44.4481 59.596C44.4485 59.596 44.4489 59.596 44.4493 59.596C44.4497 59.596 44.4501 59.596 44.4505 59.596C44.4508 59.596 44.4512 59.596 44.4516 59.596C44.452 59.596 44.4524 59.596 44.4528 59.596C44.4532 59.596 44.4536 59.596 44.454 59.596C44.4544 59.596 44.4547 59.596 44.4551 59.596C44.4555 59.596 44.4559 59.596 44.4563 59.596C44.4567 59.596 44.4571 59.596 44.4575 59.596C44.4579 59.596 44.4582 59.596 44.4586 59.596C44.459 59.596 44.4594 59.596 44.4598 59.596C44.4602 59.596 44.4606 59.596 44.461 59.596C44.4613 59.596 44.4617 59.596 44.4621 59.596C44.4625 59.596 44.4629 59.596 44.4633 59.596C44.4637 59.596 44.464 59.596 44.4644 59.596C44.4648 59.596 44.4652 59.596 44.4656 59.596C44.466 59.596 44.4664 59.596 44.4667 59.596C44.4671 59.596 44.4675 59.596 44.4679 59.596C44.4683 59.596 44.4687 59.596 44.469 59.596C44.4694 59.596 44.4698 59.596 44.4702 59.596C44.4706 59.596 44.471 59.596 44.4713 59.596C44.4717 59.596 44.4721 59.596 44.4725 59.596C44.4729 59.596 44.4732 59.596 44.4736 59.596C44.474 59.596 44.4744 59.596 44.4748 59.596C44.4752 59.596 44.4755 59.596 44.4759 59.596C44.4763 59.596 44.4767 59.596 44.4771 59.596C44.4774 59.596 44.4778 59.596 44.4782 59.596C44.4786 59.596 44.4789 59.596 44.4793 59.596C44.4797 59.596 44.4801 59.596 44.4805 59.596C44.4808 59.596 44.4812 59.596 44.4816 59.596C44.482 59.596 44.4824 59.596 44.4827 59.596C44.4831 59.596 44.4835 59.596 44.4839 59.596C44.4842 59.596 44.4846 59.596 44.485 59.596C44.4854 59.596 44.4857 59.596 44.4861 59.596C44.4865 59.596 44.4869 59.596 44.4872 59.596C44.4876 59.596 44.488 59.596 44.4884 59.596C44.4888 59.596 44.4891 59.596 44.4895 59.596C44.4899 59.596 44.4902 59.596 44.4906 59.596C44.491 59.596 44.4914 59.596 44.4917 59.596C44.4921 59.596 44.4925 59.596 44.4929 59.596C44.4932 59.596 44.4936 59.596 44.494 59.596C44.4944 59.596 44.4947 59.596 44.4951 59.596C44.4955 59.596 44.4958 59.596 44.4962 59.596C44.4966 59.596 44.497 59.596 44.4973 59.596C44.4977 59.596 44.4981 59.596 44.4984 59.596C44.4988 59.596 44.4992 59.596 44.4996 59.596C44.4999 59.596 44.5003 59.596 44.5007 59.596C44.501 59.596 44.5014 59.596 44.5018 59.596C44.5021 59.596 44.5025 59.596 44.5029 59.596C44.5032 59.596 44.5036 59.596 44.504 59.596C44.5043 59.596 44.5047 59.596 44.5051 59.596C44.5055 59.596 44.5058 59.596 44.5062 59.596C44.5066 59.596 44.5069 59.596 44.5073 59.596C44.5077 59.596 44.508 59.596 44.5084 59.596C44.5088 59.596 44.5091 59.596 44.5095 59.596C44.5099 59.596 44.5102 59.596 44.5106 59.596C44.5109 59.596 44.5113 59.596 44.5117 59.596C44.512 59.596 44.5124 59.596 44.5128 59.596C44.5131 59.596 44.5135 59.596 44.5139 59.596C44.5142 59.596 44.5146 59.596 44.515 59.596C44.5153 59.596 44.5157 59.596 44.516 59.596C44.5164 59.596 44.5168 59.596 44.5171 59.596C44.5175 59.596 44.5179 59.596 44.5182 59.596C44.5186 59.596 44.5189 59.596 44.5193 59.596C44.5197 59.596 44.52 59.596 44.5204 59.596C44.5207 59.596 44.5211 59.596 44.5215 59.596C44.5218 59.596 44.5222 59.596 44.5225 59.596C44.5229 59.596 44.5233 59.596 44.5236 59.596C44.524 59.596 44.5243 59.596 44.5247 59.596C44.5251 59.596 44.5254 59.596 44.5258 59.596C44.5261 59.596 44.5265 59.596 44.5269 59.596C44.5272 59.596 44.5276 59.596 44.5279 59.596C44.5283 59.596 44.5286 59.596 44.529 59.596C44.5294 59.596 44.5297 59.596 44.5301 59.596C44.5304 59.596 44.5308 59.596 44.5311 59.596C44.5315 59.596 44.5318 59.596 44.5322 59.596C44.5326 59.596 44.5329 59.596 44.5333 59.596C44.5336 59.596 44.534 59.596 44.5343 59.596C44.5347 59.596 44.535 59.596 44.5354 59.596C44.5358 59.596 44.5361 59.596 44.5365 59.596C44.5368 59.596 44.5372 59.596 44.5375 59.596C44.5379 59.596 44.5382 59.596 44.5386 59.596C44.5389 59.596 44.5393 59.596 44.5396 59.596C44.54 59.596 44.5403 59.596 44.5407 59.596C44.541 59.596 44.5414 59.596 44.5417 59.596C44.5421 59.596 44.5424 59.596 44.5428 59.596C44.5431 59.596 44.5435 59.596 44.5438 59.596C44.5442 59.596 44.5445 59.596 44.5449 59.596C44.5452 59.596 44.5456 59.596 44.5459 59.596C44.5463 59.596 44.5466 59.596 44.547 59.596C44.5473 59.596 44.5477 59.596 44.548 59.596C44.5484 59.596 44.5487 59.596 44.5491 59.596C44.5494 59.596 44.5498 59.596 44.5501 59.596C44.5505 59.596 44.5508 59.596 44.5512 59.596C44.5515 59.596 44.5519 59.596 44.5522 59.596C44.5525 59.596 44.5529 59.596 44.5532 59.596C44.5536 59.596 44.5539 59.596 44.5543 59.596C44.5546 59.596 44.555 59.596 44.5553 59.596C44.5557 59.596 44.556 59.596 44.5563 59.596C44.5567 59.596 44.557 59.596 44.5574 59.596C44.5577 59.596 44.5581 59.596 44.5584 59.596C44.5587 59.596 44.5591 59.596 44.5594 59.596C44.5598 59.596 44.5601 59.596 44.5605 59.596C44.5608 59.596 44.5611 59.596 44.5615 59.596C44.5618 59.596 44.5622 59.596 44.5625 59.596C44.5629 59.596 44.5632 59.596 44.5635 59.596C44.5639 59.596 44.5642 59.596 44.5646 59.596C44.5649 59.596 44.5652 59.596 44.5656 59.596C44.5659 59.596 44.5663 59.596 44.5666 59.596C44.5669 59.596 44.5673 59.596 44.5676 59.596C44.568 59.596 44.5683 59.596 44.5686 59.596C44.569 59.596 44.5693 59.596 44.5696 59.596C44.57 59.596 44.5703 59.596 44.5707 59.596C44.571 59.596 44.5713 59.596 44.5717 59.596C44.572 59.596 44.5723 59.596 44.5727 59.596C44.573 59.596 44.5734 59.596 44.5737 59.596C44.574 59.596 44.5744 59.596 44.5747 59.596C44.575 59.596 44.5754 59.596 44.5757 59.596C44.576 59.596 44.5764 59.596 44.5767 59.596C44.577 59.596 44.5774 59.596 44.5777 59.596C44.578 59.596 44.5784 59.596 44.5787 59.596C44.579 59.596 44.5794 59.596 44.5797 59.596C44.58 59.596 44.5804 59.596 44.5807 59.596C44.581 59.596 44.5814 59.596 44.5817 59.596C44.582 59.596 44.5824 59.596 44.5827 59.596C44.583 59.596 44.5834 59.596 44.5837 59.596C44.584 59.596 44.5844 59.596 44.5847 59.596C44.585 59.596 44.5853 59.596 44.5857 59.596C44.586 59.596 44.5863 59.596 44.5867 59.596C44.587 59.596 44.5873 59.596 44.5877 59.596C44.588 59.596 44.5883 59.596 44.5886 59.596C44.589 59.596 44.5893 59.596 44.5896 59.596C44.59 59.596 44.5903 59.596 44.5906 59.596C44.5909 59.596 44.5913 59.596 44.5916 59.596C44.5919 59.596 44.5922 59.596 44.5926 59.596C44.5929 59.596 44.5932 59.596 44.5936 59.596C44.5939 59.596 44.5942 59.596 44.5945 59.596C44.5949 59.596 44.5952 59.596 44.5955 59.596C44.5958 59.596 44.5962 59.596 44.5965 59.596C44.5968 59.596 44.5971 59.596 44.5975 59.596C44.5978 59.596 44.5981 59.596 44.5984 59.596C44.5987 59.596 44.5991 59.596 44.5994 59.596C44.5997 59.596 44.6 59.596 44.6004 59.596C44.6007 59.596 44.601 59.596 44.6013 59.596C44.6017 59.596 44.602 59.596 44.6023 59.596C44.6026 59.596 44.6029 59.596 44.6033 59.596C44.6036 59.596 44.6039 59.596 44.6042 59.596C44.6045 59.596 44.6049 59.596 44.6052 59.596C44.6055 59.596 44.6058 59.596 44.6061 59.596C44.6065 59.596 44.6068 59.596 44.6071 59.596C44.6074 59.596 44.6077 59.596 44.6081 59.596C44.6084 59.596 44.6087 59.596 44.609 59.596C44.6093 59.596 44.6097 59.596 44.61 59.596C44.6103 59.596 44.6106 59.596 44.6109 59.596C44.6112 59.596 44.6116 59.596 44.6119 59.596C44.6122 59.596 44.6125 59.596 44.6128 59.596C44.6131 59.596 44.6135 59.596 44.6138 59.596C44.6141 59.596 44.6144 59.596 44.6147 59.596C44.615 59.596 44.6154 59.596 44.6157 59.596C44.616 59.596 44.6163 59.596 44.6166 59.596C44.6169 59.596 44.6172 59.596 44.6176 59.596C44.6179 59.596 44.6182 59.596 44.6185 59.596C44.6188 59.596 44.6191 59.596 44.6194 59.596C44.6198 59.596 44.6201 59.596 44.6204 59.596C44.6207 59.596 44.621 59.596 44.6213 59.596C44.6216 59.596 44.6219 59.596 44.6222 59.596C44.6226 59.596 44.6229 59.596 44.6232 59.596C44.6235 59.596 44.6238 59.596 44.6241 59.596C44.6244 59.596 44.6247 59.596 44.625 59.596C44.6254 59.596 44.6257 59.596 44.626 59.596C44.6263 59.596 44.6266 59.596 44.6269 59.596C44.6272 59.596 44.6275 59.596 44.6278 59.596C44.6281 59.596 44.6284 59.596 44.6288 59.596C44.6291 59.596 44.6294 59.596 44.6297 59.596C44.63 59.596 44.6303 59.596 44.6306 59.596C44.6309 59.596 44.6312 59.596 44.6315 59.596C44.6318 59.596 44.6321 59.596 44.6324 59.596C44.6327 59.596 44.6331 59.596 44.6334 59.596C44.6337 59.596 44.634 59.596 44.6343 59.596C44.6346 59.596 44.6349 59.596 44.6352 59.596C44.6355 59.596 44.6358 59.596 44.6361 59.596C44.6364 59.596 44.6367 59.596 44.637 59.596C44.6373 59.596 44.6376 59.596 44.6379 59.596C44.6382 59.596 44.6385 59.596 44.6388 59.596C44.6391 59.596 44.6394 59.596 44.6397 59.596C44.64 59.596 44.6403 59.596 44.6406 59.596C44.6409 59.596 44.6412 59.596 44.6416 59.596C44.6419 59.596 44.6422 59.596 44.6425 59.596C44.6428 59.596 44.6431 59.596 44.6434 59.596C44.6437 59.596 44.644 59.596 44.6443 59.596C44.6446 59.596 44.6449 59.596 44.6452 59.596C44.6455 59.596 44.6458 59.596 44.6461 59.596C44.6463 59.596 44.6466 59.596 44.6469 59.596C44.6472 59.596 44.6475 59.596 44.6478 59.596C44.6481 59.596 44.6484 59.596 44.6487 59.596C44.649 59.596 44.6493 59.596 44.6496 59.596C44.6499 59.596 44.6502 59.596 44.6505 59.596C44.6508 59.596 44.6511 59.596 44.6514 59.596C44.6517 59.596 44.652 59.596 44.6523 59.596C44.6526 59.596 44.6529 59.596 44.6532 59.596C44.6535 59.596 44.6538 59.596 44.6541 59.596C44.6544 59.596 44.6546 59.596 44.6549 59.596C44.6552 59.596 44.6555 59.596 44.6558 59.596C44.6561 59.596 44.6564 59.596 44.6567 59.596C44.657 59.596 44.6573 59.596 44.6576 59.596C44.6579 59.596 44.6582 59.596 44.6585 59.596C44.6588 59.596 44.659 59.596 44.6593 59.596C44.6596 59.596 44.6599 59.596 44.6602 59.596C44.6605 59.596 44.6608 59.596 44.6611 59.596C44.6614 59.596 44.6617 59.596 44.662 59.596C44.6622 59.596 44.6625 59.596 44.6628 59.596C44.6631 59.596 44.6634 59.596 44.6637 59.596C44.664 59.596 44.6643 59.596 44.6646 59.596C44.6648 59.596 44.6651 59.596 44.6654 59.596C44.6657 59.596 44.666 59.596 44.6663 59.596C44.6666 59.596 44.6669 59.596 44.6671 59.596C44.6674 59.596 44.6677 59.596 44.668 59.596C44.6683 59.596 44.6686 59.596 44.6689 59.596C44.6692 59.596 44.6694 59.596 44.6697 59.596C44.67 59.596 44.6703 59.596 44.6706 59.596C44.6709 59.596 44.6711 59.596 44.6714 59.596C44.6717 59.596 44.672 59.596 44.6723 59.596C44.6726 59.596 44.6729 59.596 44.6731 59.596C44.6734 59.596 44.6737 59.596 44.674 59.596C44.6743 59.596 44.6746 59.596 44.6748 59.596C44.6751 59.596 44.6754 59.596 44.6757 59.596C44.676 59.596 44.6762 59.596 44.6765 59.596C44.6768 59.596 44.6771 59.596 44.6774 59.596C44.6777 59.596 44.6779 59.596 44.6782 59.596C44.6785 59.596 44.6788 59.596 44.6791 59.596C44.6793 59.596 44.6796 59.596 44.6799 59.596C44.6802 59.596 44.6805 59.596 44.6807 59.596C44.681 59.596 44.6813 59.596 44.6816 59.596C44.6819 59.596 44.6821 59.596 44.6824 59.596C44.6827 59.596 44.683 59.596 44.6832 59.596C44.6835 59.596 44.6838 59.596 44.6841 59.596C44.6844 59.596 44.6846 59.596 44.6849 59.596C44.6852 59.596 44.6855 59.596 44.6857 59.596C44.686 59.596 44.6863 59.596 44.6866 59.596C44.6868 59.596 44.6871 59.596 44.6874 59.596C44.6877 59.596 44.6879 59.596 44.6882 59.596C44.6885 59.596 44.6888 59.596 44.689 59.596C44.6893 59.596 44.6896 59.596 44.6899 59.596C44.6901 59.596 44.6904 59.596 44.6907 59.596C44.691 59.596 44.6912 59.596 44.6915 59.596C44.6918 59.596 44.6921 59.596 44.6923 59.596C44.6926 59.596 44.6929 59.596 44.6931 59.596C44.6934 59.596 44.6937 59.596 44.694 59.596C44.6942 59.596 44.6945 59.596 44.6948 59.596C44.695 59.596 44.6953 59.596 44.6956 59.596C44.6959 59.596 44.6961 59.596 44.6964 59.596C44.6967 59.596 44.6969 59.596 44.6972 59.596C44.6975 59.596 44.6977 59.596 44.698 59.596C44.6983 59.596 44.6985 59.596 44.6988 59.596C44.6991 59.596 44.6994 59.596 44.6996 59.596C44.6999 59.596 44.7002 59.596 44.7004 59.596C44.7007 59.596 44.701 59.596 44.7012 59.596C44.7015 59.596 44.7018 59.596 44.702 59.596C44.7023 59.596 44.7026 59.596 44.7028 59.596C44.7031 59.596 44.7034 59.596 44.7036 59.596C44.7039 59.596 44.7042 59.596 44.7044 59.596C44.7047 59.596 44.705 59.596 44.7052 59.596C44.7055 59.596 44.7057 59.596 44.706 59.596C44.7063 59.596 44.7065 59.596 44.7068 59.596C44.7071 59.596 44.7073 59.596 44.7076 59.596C44.7079 59.596 44.7081 59.596 44.7084 59.596C44.7086 59.596 44.7089 59.596 44.7092 59.596C44.7094 59.596 44.7097 59.596 44.71 59.596C44.7102 59.596 44.7105 59.596 44.7107 59.596C44.711 59.596 44.7113 59.596 44.7115 59.596C44.7118 59.596 44.712 59.596 44.7123 59.596C44.7126 59.596 44.7128 59.596 44.7131 59.596C44.7133 59.596 44.7136 59.596 44.7139 59.596C44.7141 59.596 44.7144 59.596 44.7146 59.596C44.7149 59.596 44.7152 59.596 44.7154 59.596C44.7157 59.596 44.7159 59.596 44.7162 59.596C44.7164 59.596 44.7167 59.596 44.717 59.596C44.7172 59.596 44.7175 59.596 44.7177 59.596C44.718 59.596 44.7182 59.596 44.7185 59.596C44.7188 59.596 44.719 59.596 44.7193 59.596C44.7195 59.596 44.7198 59.596 44.72 59.596C44.7203 59.596 44.7205 59.596 44.7208 59.596C44.7211 59.596 44.7213 59.596 44.7216 59.596C44.7218 59.596 44.7221 59.596 44.7223 59.596C44.7226 59.596 44.7228 59.596 44.7231 59.596C44.7233 59.596 44.7236 59.596 44.7238 59.596C44.7241 59.596 44.7244 59.596 44.7246 59.596C44.7249 59.596 44.7251 59.596 44.7254 59.596C44.7256 59.596 44.7259 59.596 44.7261 59.596C44.7264 59.596 44.7266 59.596 44.7269 59.596C44.7271 59.596 44.7274 59.596 44.7276 59.596C44.7279 59.596 44.7281 59.596 44.7284 59.596V58.596ZM44.2736 58.6109C44.2472 58.6043 44.2367 58.5983 44.2363 58.5981C44.2363 58.5981 44.2385 58.5994 44.2422 58.6025C44.2459 58.6057 44.2504 58.6101 44.2548 58.6157C44.2593 58.6212 44.2629 58.6269 44.2657 58.6322C44.2684 58.6375 44.2698 58.6413 44.2703 58.643C44.2712 58.6461 44.2684 58.6387 44.2684 58.616H43.2684C43.2684 58.8286 43.3228 59.0514 43.4739 59.2403C43.6238 59.4277 43.8277 59.5302 44.0311 59.5811L44.2736 58.6109ZM44.2684 58.616C44.2684 58.46 44.3096 58.3601 44.3714 58.2846C44.4386 58.2024 44.5629 58.1102 44.7905 58.0343L44.4743 57.0857C44.1259 57.2018 43.8182 57.3816 43.5974 57.6514C43.3711 57.9279 43.2684 58.26 43.2684 58.616H44.2684ZM44.8181 58.0242C45.4537 57.77 45.8981 57.6248 46.1704 57.5703L45.9743 56.5897C45.6067 56.6632 45.091 56.838 44.4467 57.0958L44.8181 58.0242ZM46.1645 57.5714C51.3153 56.6057 56.2112 55.1887 60.8512 53.3198L60.4776 52.3922C55.9016 54.2353 51.0694 55.6343 45.9802 56.5886L46.1645 57.5714ZM60.8512 53.3198C65.4946 51.4495 69.9747 49.0319 74.2914 46.0682L73.7254 45.2438C69.466 48.1681 65.0502 50.5505 60.4776 52.3922L60.8512 53.3198ZM74.2809 46.0752C75.5915 45.2233 76.9275 44.1469 78.2892 42.8501L77.5996 42.1259C76.2733 43.3891 74.9852 44.4247 73.7359 45.2368L74.2809 46.0752ZM78.2892 42.8501C79.6658 41.5391 80.8156 40.0943 81.7363 38.5159L80.8725 38.0121C80.0012 39.5057 78.911 40.8769 77.5996 42.1259L78.2892 42.8501ZM81.7331 38.5212C82.7319 36.8566 83.2444 35.1688 83.2444 33.464H82.2444C82.2444 34.9592 81.7969 36.4714 80.8756 38.0068L81.7331 38.5212ZM83.2444 33.464C83.2444 30.5315 82.3065 28.095 80.4099 26.1984L79.7028 26.9056C81.3902 28.593 82.2444 30.7645 82.2444 33.464H83.2444ZM80.4163 26.2049C78.6296 24.352 76.3866 22.9373 73.7002 21.9544L73.3566 22.8936C75.9182 23.8307 78.0272 25.168 79.6965 26.8991L80.4163 26.2049ZM73.7002 21.9544C71.0384 20.9806 68.2797 20.3316 65.4248 20.0072L65.3119 21.0008C68.0891 21.3164 70.7703 21.9474 73.3566 22.8936L73.7002 21.9544ZM65.4375 20.0088C62.6693 19.6225 60.2134 19.428 58.0724 19.428V20.428C60.1554 20.428 62.5635 20.6175 65.2993 20.9992L65.4375 20.0088ZM58.0724 19.428C56.0637 19.428 53.612 19.5899 50.7212 19.9111L50.8316 20.9049C53.7008 20.5861 56.1131 20.428 58.0724 20.428V19.428ZM50.7321 19.91C47.8275 20.1682 44.8289 20.652 41.7367 21.3606L41.9601 22.3354C45.0118 21.636 47.9653 21.1598 50.8206 20.906L50.7321 19.91ZM41.7344 21.3612C38.6908 22.0735 35.8999 23.0787 33.3642 24.3791L33.8205 25.2689C36.2769 24.0092 38.99 23.0305 41.9623 22.3348L41.7344 21.3612ZM33.3688 24.3768C30.8742 25.6241 29.003 27.2165 27.7916 29.1683L28.6412 29.6957C29.7337 27.9355 31.4466 26.4559 33.816 25.2712L33.3688 24.3768ZM27.742 29.2739C27.6879 29.4364 27.6025 29.6376 27.4812 29.8804L28.3756 30.3276C28.5102 30.0584 28.6169 29.8116 28.6907 29.5901L27.742 29.2739ZM27.5748 29.7504C27.4932 29.8321 27.3732 29.892 27.1604 29.892V30.892C27.5875 30.892 27.9796 30.7599 28.2819 30.4576L27.5748 29.7504ZM27.1604 29.892C27.1539 29.892 27.1591 29.8912 27.172 29.8951C27.1859 29.8992 27.2033 29.9072 27.2204 29.92C27.2569 29.9474 27.2591 29.971 27.2507 29.9459L26.302 30.2621C26.3577 30.429 26.4558 30.5966 26.6204 30.72C26.7872 30.8451 26.9784 30.892 27.1604 30.892V29.892ZM27.1924 29.8267C27.1416 29.7504 27.1123 29.6935 27.0966 29.6543C27.0805 29.6141 27.0844 29.6065 27.0844 29.624H26.0844C26.0844 29.9023 26.2157 30.1644 26.3603 30.3813L27.1924 29.8267ZM27.0844 29.624C27.0844 29.5716 27.099 29.4692 27.1547 29.3021L26.206 28.9859C26.1337 29.2028 26.0844 29.4204 26.0844 29.624H27.0844ZM27.1547 29.3021C27.214 29.1242 27.2695 28.9878 27.3196 28.8876L26.4252 28.4404C26.3472 28.5962 26.2747 28.7798 26.206 28.9859L27.1547 29.3021ZM27.3221 28.8824C28.3623 26.741 30.0497 24.9531 32.4113 23.5237L31.8935 22.6682C29.391 24.1829 27.5585 26.107 26.4226 28.4455L27.3221 28.8824ZM32.4144 23.5218C34.8662 22.013 37.6054 20.8472 40.6351 20.0266L40.3737 19.0614C37.2593 19.9048 34.4305 21.107 31.8903 22.6702L32.4144 23.5218ZM40.6417 20.0248C43.7553 19.1352 46.8025 18.5005 49.7837 18.12L49.6571 17.128C46.6222 17.5154 43.5255 18.1608 40.367 19.0632L40.6417 20.0248ZM49.7837 18.12C52.7782 17.7377 55.348 17.548 57.4964 17.548V16.548C55.2928 16.548 52.6786 16.7423 49.6571 17.128L49.7837 18.12ZM57.4964 17.548C59.4544 17.548 61.6726 17.706 64.1528 18.0239L64.28 17.0321C61.7682 16.71 59.5064 16.548 57.4964 16.548V17.548ZM64.1528 18.0239C66.6195 18.3402 69.0876 18.878 71.5573 19.6379L71.8514 18.6821C69.3292 17.906 66.8053 17.3558 64.28 17.0321L64.1528 18.0239ZM71.5686 19.6412C74.0235 20.3336 76.2856 21.3081 78.3572 22.5636L78.8755 21.7084C76.7231 20.4039 74.3773 19.3944 71.8401 18.6788L71.5686 19.6412ZM78.3572 22.5636C80.411 23.8083 82.0518 25.3585 83.2884 27.2133L84.1204 26.6586C82.7969 24.6735 81.0457 23.0237 78.8755 21.7084L78.3572 22.5636ZM83.2928 27.2199C84.5062 28.9794 85.1244 31.1163 85.1244 33.656H86.1244C86.1244 30.9477 85.4625 28.6046 84.116 26.6521L83.2928 27.2199ZM85.1244 33.656C85.1244 36.3404 84.1512 38.9211 82.1619 41.4077L82.9428 42.0323C85.0496 39.3989 86.1244 36.6036 86.1244 33.656H85.1244ZM82.1619 41.4077C80.1531 43.9187 77.5398 46.2201 74.3128 48.3082L74.856 49.1478C78.157 47.0119 80.8557 44.6413 82.9428 42.0323L82.1619 41.4077ZM74.3128 48.3082C71.0751 50.4032 67.6141 52.2132 63.9292 53.738L64.3116 54.662C68.0507 53.1148 71.5657 51.2768 74.856 49.1478L74.3128 48.3082ZM63.9292 53.738C60.236 55.2662 56.6739 56.4745 53.2429 57.364L53.4939 58.332C56.9748 57.4295 60.5808 56.2058 64.3116 54.662L63.9292 53.738ZM53.2513 57.3619C49.8154 58.1891 46.9778 58.596 44.7284 58.596V59.596C47.087 59.596 50.0094 59.1709 53.4854 58.3341L53.2513 57.3619ZM45.9764 83.556C43.4978 83.556 41.7705 82.9063 40.6831 81.7045L39.9416 82.3755C41.2863 83.8617 43.335 84.556 45.9764 84.556V83.556ZM40.6831 81.7045C39.5389 80.4398 38.8083 78.8678 38.502 76.9684L37.5148 77.1276C37.8484 79.1962 38.6539 80.9522 39.9416 82.3755L40.6831 81.7045ZM38.5024 76.9708C38.1863 74.948 38.0284 72.9258 38.0284 70.904H37.0284C37.0284 72.9782 37.1904 75.052 37.5144 77.1252L38.5024 76.9708ZM38.0284 70.904C38.0284 63.9892 39.2651 57.4281 41.7369 51.2169L40.8078 50.8471C38.2876 57.1799 37.0284 63.8668 37.0284 70.904H38.0284ZM41.7353 51.2209C44.2873 44.9685 47.2221 38.9076 50.5397 33.038L49.6691 32.546C46.3307 38.4524 43.3774 44.5515 40.8095 50.8431L41.7353 51.2209ZM50.5516 33.0156C50.6987 32.7214 50.7964 32.4183 50.7964 32.12H49.7964C49.7964 32.2057 49.7661 32.3506 49.6572 32.5684L50.5516 33.0156ZM50.7964 32.12C50.7964 31.9476 50.788 31.7886 50.7656 31.6538C50.7483 31.5499 50.7067 31.3432 50.5539 31.1904L49.8468 31.8976C49.7933 31.844 49.7757 31.7954 49.7742 31.7916C49.7712 31.7836 49.7745 31.7899 49.7792 31.8182C49.7887 31.8754 49.7964 31.9724 49.7964 32.12H50.7964ZM50.7004 31.544C50.7004 31.4349 50.6728 31.2613 50.5299 31.1184C50.3871 30.9756 50.2134 30.948 50.1044 30.948V31.948C50.0593 31.948 49.9337 31.9364 49.8228 31.8256C49.712 31.7147 49.7004 31.5891 49.7004 31.544H50.7004ZM50.1044 30.948C50.058 30.948 50.0228 30.9454 49.9971 30.942C49.971 30.9385 49.9591 30.9346 49.9576 30.9341C49.9561 30.9336 49.9698 30.9381 49.9904 30.9535C50.0123 30.9699 50.0378 30.9958 50.0585 31.0319C50.0791 31.068 50.0882 31.1026 50.0911 31.1287C50.0939 31.1532 50.091 31.1662 50.0915 31.1636C50.0921 31.1608 50.095 31.1476 50.1053 31.1224C50.1154 31.0976 50.1311 31.065 50.1545 31.0241L49.2863 30.5279C49.2073 30.6661 49.1394 30.818 49.1092 30.9764C49.0783 31.1389 49.0822 31.339 49.1903 31.5281C49.2987 31.7178 49.4698 31.8229 49.6272 31.8779C49.7801 31.9314 49.9458 31.948 50.1044 31.948V30.948ZM50.1272 31.0666C50.4178 30.6599 50.8686 30.1753 51.4949 29.6116L50.8259 28.8684C50.1722 29.4567 49.663 29.9961 49.3135 30.4854L50.1272 31.0666ZM51.5139 29.5936C52.1365 28.971 52.7544 28.4465 53.3671 28.0176L52.7936 27.1984C52.1264 27.6655 51.4643 28.229 50.8068 28.8864L51.5139 29.5936ZM53.3671 28.0176C53.6768 27.8008 53.9265 27.648 54.12 27.5512C54.2164 27.503 54.2916 27.4724 54.348 27.4545C54.4067 27.4358 54.4291 27.436 54.4244 27.436V26.436C54.175 26.436 53.912 26.5372 53.6728 26.6568C53.4183 26.784 53.124 26.9672 52.7936 27.1984L53.3671 28.0176ZM54.4244 27.436C54.8036 27.436 55.213 27.5764 55.6604 27.912L56.2604 27.112C55.6838 26.6796 55.0691 26.436 54.4244 26.436V27.436ZM55.6954 27.936C56.0697 28.17 56.2284 28.4622 56.2284 28.856H57.2284C57.2284 28.0978 56.875 27.494 56.2254 27.088L55.6954 27.936ZM56.2284 28.856C56.2284 28.813 56.2372 28.8 56.2252 28.8388C56.2156 28.8699 56.1978 28.918 56.168 28.9862C56.1087 29.1223 56.0148 29.3094 55.882 29.5516C55.6172 30.0344 55.2154 30.7045 54.6733 31.5656L55.5195 32.0984C56.0653 31.2315 56.4796 30.5416 56.7588 30.0324C56.898 29.7786 57.0081 29.5617 57.0847 29.3858C57.123 29.298 57.1562 29.2131 57.1806 29.1342C57.2026 29.063 57.2284 28.963 57.2284 28.856H56.2284ZM54.6733 31.5656C53.5817 33.2992 52.2031 35.5757 50.5379 38.3936L51.3988 38.9024C53.0617 36.0883 54.435 33.8208 55.5195 32.0984L54.6733 31.5656ZM50.5336 38.401C48.9256 41.2311 47.2874 44.4436 45.6189 48.0374L46.5259 48.4586C48.1853 44.8844 49.8111 41.6969 51.4031 38.895L50.5336 38.401ZM45.6172 48.0411C44.0055 51.5867 42.6527 55.3558 41.5582 59.3478L42.5226 59.6122C43.604 55.6682 44.9392 51.9493 46.5276 48.4549L45.6172 48.0411ZM41.5587 59.3458C40.459 63.2918 39.9084 67.2409 39.9084 71.192H40.9084C40.9084 67.3351 41.4457 63.4762 42.522 59.6142L41.5587 59.3458ZM39.9084 71.192C39.9084 72.2433 40.0067 73.6086 40.1997 75.2813L41.1931 75.1667C41.0021 73.5114 40.9084 72.1887 40.9084 71.192H39.9084ZM40.2022 75.3C40.4645 77.0053 40.9247 78.5858 41.5852 80.0389L42.4956 79.6251C41.8761 78.2622 41.4402 76.7707 41.1906 75.148L40.2022 75.3ZM41.5889 80.047C42.2904 81.5201 43.407 82.4344 44.9228 82.7232L45.1099 81.7408C43.9378 81.5176 43.0703 80.8319 42.4918 79.617L41.5889 80.047ZM44.9183 82.7223C45.2142 82.7815 45.6756 82.9038 46.3127 83.0949L46.6 82.1371C45.9571 81.9442 45.4586 81.8105 45.1144 81.7417L44.9183 82.7223ZM46.3127 83.0949C46.8674 83.2613 46.9933 83.478 47.0174 83.6467L48.0074 83.5053C47.9034 82.778 47.3253 82.3547 46.6001 82.1371L46.3127 83.0949ZM47.0652 83.3524C47.0403 83.4021 47.0174 83.4201 47.0003 83.4299C46.98 83.4415 46.9341 83.46 46.8404 83.46V84.46C47.0667 84.46 47.2928 84.4145 47.4964 84.2981C47.7034 84.1799 47.8565 84.0059 47.9596 83.7996L47.0652 83.3524ZM46.7423 83.4697C46.4463 83.5289 46.1919 83.556 45.9764 83.556V84.556C46.2728 84.556 46.5945 84.5191 46.9384 84.4503L46.7423 83.4697Z" fill="black"/>
</svg>
